<svg width='40' height='40' viewBox= '0 0 50 50' fill='none'>
<path d= "M 22.0852 0.160518 C 16.4024 0.906765 11.4609 3.26988 7.50769 7.14463 C 4.09614 10.4836 1.80593 14.5114 0.656075 19.1994 C 0.161922 21.2181 -0.00913038 22.768 0.000372558 25.0354 C 0.0098755 29.1493 0.817625 32.5362 2.6707 36.2674 C 4.52377 39.9795 7.45068 43.2993 11.0238 45.7103 C 15.7943 48.9249 21.8476 50.4748 27.3118 49.8721 C 33.5838 49.1736 38.5918 46.8105 42.8111 42.534 C 48.5129 36.7458 50.9076 29.2642 49.6912 20.9215 C 48.988 16.0231 46.1846 10.6271 42.545 7.13506 C 39.105 3.84392 34.9712 1.60518 30.4478 0.591045 C 27.8535 0.0170091 24.518 -0.164769 22.0852 0.160518 Z M 28.0816 3.31772 C 34.9332 4.32228 40.9865 8.75193 44.1225 15.0568 C 45.0728 16.9702 45.757 19.1324 46.0991 21.2563 C 46.3367 22.7297 46.3367 26.681 46.0991 28.0491 C 45.4624 31.6655 44.17 34.7271 42.0034 37.6642 C 41.6422 38.1617 40.7015 39.2141 39.9222 39.9986 L 38.5063 41.4146 L 38.5633 42.1513 L 38.6203 42.8784 L 38.3447 41.826 C 38.0216 40.5727 37.7365 39.8743 37.3184 39.3194 C 37.1474 39.0897 37.0048 38.8506 37.0048 38.7836 C 37.0143 38.7262 37.2519 38.4966 37.5465 38.2861 C 38.0786 37.9034 38.8104 37.1284 39.2095 36.5161 C 39.352 36.3152 39.5516 36.1526 39.7512 36.0952 C 40.2263 35.9612 40.768 35.3968 40.8915 34.9088 C 41.0246 34.44 40.977 34.22 40.6539 33.7321 L 40.4164 33.3876 L 40.6254 32.4405 C 40.8345 31.5029 40.8345 31.4838 40.6729 30.0104 C 40.5874 29.1972 40.5209 28.4127 40.5209 28.2787 C 40.5209 27.9439 39.7892 26.4705 39.2095 25.6573 C 38.2402 24.2796 37.8791 23.9543 36.4726 23.2655 C 34.8381 22.4523 34.2395 22.3183 32.5859 22.3853 C 31.1415 22.4427 29.9251 22.7201 28.8133 23.2559 C 27.6919 23.7917 26.4185 25.0641 25.1927 26.8915 C 24.7745 27.5038 24.746 27.5803 24.746 28.1735 C 24.746 28.6327 24.651 29.0824 24.4039 29.8573 C 23.9858 31.168 24.0048 31.4742 24.6035 32.4979 C 24.8411 32.8997 25.0311 33.2824 25.0311 33.3302 C 25.0311 33.3876 24.9076 33.5694 24.746 33.7416 C 24.2424 34.287 24.2519 35.1289 24.7745 35.6934 C 25.0691 36.0091 25.7913 36.3057 25.9719 36.1813 C 26.0194 36.1526 25.9814 35.9134 25.8769 35.6551 C 25.5918 34.8993 25.6678 34.8706 26.0194 35.6073 C 26.7131 37.0806 27.6539 38.0278 29.1649 38.774 C 30.3052 39.3289 31.284 39.5777 32.681 39.6446 C 33.3082 39.6733 33.7358 39.7307 33.6313 39.769 C 33.0611 39.9699 30.4383 39.5968 29.2314 39.1376 L 28.6042 38.8984 L 28.4427 39.1184 C 28.0911 39.5777 27.3973 41.0989 27.2263 41.7781 C 27.1313 42.1704 26.9982 42.9645 26.9317 43.5385 C 26.7416 45.3276 26.6656 45.4902 26.4661 44.4378 C 26.1335 42.6966 23.9003 34.4496 23.6247 33.9521 C 23.5867 33.8756 22.988 33.6747 22.2943 33.5025 C 21.6006 33.3207 20.8403 33.1102 20.6027 33.0145 C 20.3747 32.9284 20.1561 32.8806 20.1276 32.9093 C 20.0991 32.938 20.2606 33.2154 20.4887 33.5216 C 20.7168 33.8277 21.0399 34.2965 21.2109 34.5549 C 21.6576 35.2724 22.6934 37.5111 22.9975 38.4009 C 23.3301 39.3481 23.3016 39.415 22.3038 40.2665 C 21.9237 40.5918 21.6101 40.9267 21.6101 41.0128 C 21.6101 41.0893 22.0472 41.5677 22.5794 42.0652 C 23.5011 42.9358 23.5392 42.9932 23.4631 43.2611 L 23.3776 43.5481 L 23.3396 43.2515 C 23.3206 43.0219 23.0925 42.7636 22.3228 42.0269 C 21.7716 41.5198 21.325 41.0415 21.325 40.9649 C 21.325 40.898 21.6671 40.544 22.0757 40.1804 C 23.121 39.2811 23.1305 39.2237 22.7029 38.1234 C 21.9807 36.277 20.4317 33.4259 19.8615 32.8901 C 19.681 32.7179 19.6144 32.5553 19.6144 32.297 C 19.6144 31.9047 19.7 31.809 20.1846 31.6464 C 20.6788 31.4838 21.1634 31.1106 21.496 30.6418 C 21.7621 30.2687 21.8761 30.2017 22.6079 29.9721 C 23.0545 29.8286 23.4156 29.6755 23.4156 29.6373 C 23.4156 29.5894 23.2446 29.3407 23.0355 29.0919 C 22.6269 28.5944 22.5508 28.2405 22.8264 28.1544 C 22.912 28.1257 23.2446 28.0778 23.5582 28.0395 C 23.8718 28.0108 24.1568 27.963 24.1949 27.9343 C 24.2329 27.9152 24.1378 27.5516 23.9858 27.1307 C 23.8242 26.7097 23.7007 26.3079 23.7007 26.2505 C 23.7007 26.1835 23.9478 26.0591 24.2519 25.9539 C 24.9266 25.7338 26.0764 25.1598 26.0764 25.045 C 26.0764 24.9972 25.7248 24.7675 25.3067 24.5379 C 24.4799 24.0978 23.6437 23.4281 23.7672 23.3133 C 23.8052 23.275 24.1473 23.1411 24.5084 23.0263 C 25.4207 22.7201 26.39 22.2705 27.1503 21.7825 C 27.5019 21.5625 27.787 21.3616 27.768 21.352 C 27.7299 21.3233 25.1547 20.2135 24.9076 20.1274 C 24.7935 20.0796 24.765 20.0222 24.8125 19.9361 C 24.8506 19.8595 25.4778 19.2472 26.2 18.5775 C 26.9127 17.8982 27.5019 17.3146 27.5019 17.2764 C 27.5019 17.1998 26.9127 17.0946 25.1737 16.8458 C 24.5465 16.7502 23.9953 16.6545 23.9573 16.6162 C 23.9098 16.578 24.3469 15.736 24.9266 14.7506 C 25.8674 13.1337 26.0479 12.7893 25.9529 12.7893 C 25.9339 12.7893 25.1546 13.0668 24.2234 13.4112 C 22.8644 13.9087 22.4938 14.0044 22.3988 13.9087 C 22.1897 13.6982 21.9902 12.1196 21.9902 10.7036 V 9.33553 L 21.2204 9.74692 C 20.3177 10.2349 19.1108 11.182 18.5501 11.8422 C 18.341 12.1005 18.1225 12.311 18.0845 12.311 C 18.0369 12.311 17.6758 11.8709 17.2672 11.3255 C 16.564 10.3879 15.3761 9.05808 15.2431 9.05808 C 15.2051 9.05808 15.129 9.47904 15.072 9.9861 C 14.901 11.4212 14.3973 13.172 14.1502 13.172 C 14.0837 13.172 13.6276 12.9807 13.1429 12.751 C 12.3637 12.3875 11.1758 12.0239 10.7387 12.0239 C 10.6247 12.0239 10.6817 12.1961 10.9573 12.7606 C 11.3754 13.6121 11.7555 14.942 11.708 15.4012 L 11.6795 15.7073 L 10.8242 15.7743 C 8.33445 15.9657 7.16559 16.0805 7.16559 16.1283 C 7.16559 16.1666 7.58372 16.6162 8.09688 17.1424 C 9.05667 18.1183 9.75989 19.1611 9.71237 19.5247 C 9.69337 19.6586 9.20872 20.0604 8.21091 20.7589 C 7.40316 21.3233 6.72845 21.8304 6.70945 21.8782 C 6.69044 21.9261 6.79497 21.993 6.94702 22.0313 C 7.96383 22.2513 8.40097 22.3949 8.76208 22.6053 C 9.25623 22.9019 9.76939 23.342 10.026 23.7056 L 10.216 23.9735 L 9.1517 25.0354 C 8.25842 25.9347 8.10638 26.1165 8.22041 26.2218 C 8.29644 26.2887 8.86661 26.5088 9.49381 26.7001 C 10.121 26.8915 10.6722 27.0924 10.7197 27.1402 C 10.7672 27.1881 10.6912 27.676 10.5106 28.3457 C 10.3491 28.9676 10.2445 29.5129 10.273 29.5607 C 10.3206 29.6468 11.8885 29.5703 12.1451 29.4746 C 12.3827 29.3885 12.4777 29.6181 12.5443 30.374 C 12.5823 30.8141 12.6393 31.1872 12.6773 31.2063 C 12.7533 31.2541 13.8176 30.7949 13.8176 30.7184 C 13.8176 30.6897 13.6941 30.4888 13.5421 30.2687 C 12.9054 29.3311 12.4682 28.1544 12.1261 26.4227 C 11.8981 25.3224 11.7935 24.27 11.9076 24.27 C 11.9456 24.27 12.0121 24.5762 12.0501 24.9493 C 12.2402 27.0828 13.219 29.7904 14.1122 30.6897 C 14.3403 30.9193 14.8345 31.2446 15.3096 31.4646 L 16.1079 31.8377 L 16.0793 32.1917 L 16.0508 32.5457 L 13.9412 33.2537 L 11.8315 33.9617 L 11.6415 34.5453 C 11.5369 34.8706 11.0998 36.3535 10.6817 37.8556 C 9.90243 40.5822 9.66486 41.2711 9.7789 40.4579 C 9.82641 40.056 9.8074 40.0178 9.32275 39.482 C 6.29132 36.1909 4.41924 32.3352 3.68751 27.8578 C 3.41193 26.2218 3.44044 22.7201 3.73503 21.1128 C 4.56178 16.5971 6.38635 12.9137 9.37027 9.76606 C 14.2358 4.64757 21.0494 2.29402 28.0816 3.31772 Z M 15.2241 34.2391 C 14.5399 35.6647 13.3235 39.0802 13.428 39.262 C 13.4755 39.3481 13.8842 39.7403 14.3403 40.1421 C 14.8059 40.544 15.1956 40.9171 15.2146 40.9841 C 15.2431 41.051 15.1005 41.2615 14.901 41.4624 C 14.6919 41.6825 14.6159 41.7303 14.7109 41.5868 C 15.0815 41.0032 15.11 41.0797 14.1502 40.19 C 13.504 39.5872 13.2475 39.2907 13.2475 39.128 C 13.2475 38.6305 15.129 33.8373 15.3286 33.8373 C 15.3761 33.8373 15.3286 34.0191 15.2241 34.2391 Z"></path>
</svg>
